solid OpenSCAD_Model
  facet normal 1 0 0
    outer loop
      vertex 5 35.0611 35.9549
      vertex 5 5 15
      vertex 5 11.6667 5
    endloop
  endfacet
  facet normal 1 0 0
    outer loop
      vertex 5 70 60
      vertex 5 64 8.4641
      vertex 5 70 5
    endloop
  endfacet
  facet normal 1 0 0
    outer loop
      vertex 5 70 60
      vertex 5 42.7553 38.4549
      vertex 5 64 8.4641
    endloop
  endfacet
  facet normal 1 0 0
    outer loop
      vertex 5 42.7553 38.4549
      vertex 5 70 60
      vertex 5 43 40
    endloop
  endfacet
  facet normal 1 0 0
    outer loop
      vertex 5 70 60
      vertex 5 42.7553 41.5451
      vertex 5 43 40
    endloop
  endfacet
  facet normal 1 0 0
    outer loop
      vertex 5 70 60
      vertex 5 42.0451 42.9389
      vertex 5 42.7553 41.5451
    endloop
  endfacet
  facet normal 1 0 0
    outer loop
      vertex 5 70 60
      vertex 5 40.9389 44.0451
      vertex 5 42.0451 42.9389
    endloop
  endfacet
  facet normal 1 0 0
    outer loop
      vertex 5 70 60
      vertex 5 39.5451 44.7553
      vertex 5 40.9389 44.0451
    endloop
  endfacet
  facet normal 1 0 0
    outer loop
      vertex 5 70 60
      vertex 5 38 45
      vertex 5 39.5451 44.7553
    endloop
  endfacet
  facet normal 1 -0 0
    outer loop
      vertex 5 12.1244 60
      vertex 5 38 45
      vertex 5 70 60
    endloop
  endfacet
  facet normal 1 0 0
    outer loop
      vertex 5 5 35
      vertex 5 33.2447 41.5451
      vertex 5 12.1244 60
    endloop
  endfacet
  facet normal 1 0 0
    outer loop
      vertex 5 33.9549 42.9389
      vertex 5 12.1244 60
      vertex 5 33.2447 41.5451
    endloop
  endfacet
  facet normal 1 0 0
    outer loop
      vertex 5 35.0611 44.0451
      vertex 5 12.1244 60
      vertex 5 33.9549 42.9389
    endloop
  endfacet
  facet normal 1 0 0
    outer loop
      vertex 5 36.4549 44.7553
      vertex 5 12.1244 60
      vertex 5 35.0611 44.0451
    endloop
  endfacet
  facet normal 1 0 0
    outer loop
      vertex 5 38 45
      vertex 5 12.1244 60
      vertex 5 36.4549 44.7553
    endloop
  endfacet
  facet normal 1 -0 0
    outer loop
      vertex 5 42.0451 37.0611
      vertex 5 64 8.4641
      vertex 5 42.7553 38.4549
    endloop
  endfacet
  facet normal 1 -0 0
    outer loop
      vertex 5 40.9389 35.9549
      vertex 5 64 8.4641
      vertex 5 42.0451 37.0611
    endloop
  endfacet
  facet normal 1 -0 0
    outer loop
      vertex 5 39.5451 35.2447
      vertex 5 64 8.4641
      vertex 5 40.9389 35.9549
    endloop
  endfacet
  facet normal 1 -0 0
    outer loop
      vertex 5 38 35
      vertex 5 64 8.4641
      vertex 5 39.5451 35.2447
    endloop
  endfacet
  facet normal 1 0 0
    outer loop
      vertex 5 11.6667 5
      vertex 5 64 8.4641
      vertex 5 38 35
    endloop
  endfacet
  facet normal 1 0 0
    outer loop
      vertex 5 11.6667 5
      vertex 5 38 35
      vertex 5 36.4549 35.2447
    endloop
  endfacet
  facet normal 1 0 0
    outer loop
      vertex 5 11.6667 5
      vertex 5 36.4549 35.2447
      vertex 5 35.0611 35.9549
    endloop
  endfacet
  facet normal 1 0 0
    outer loop
      vertex 5 5 15
      vertex 5 35.0611 35.9549
      vertex 5 33.9549 37.0611
    endloop
  endfacet
  facet normal 1 0 0
    outer loop
      vertex 5 33.2447 41.5451
      vertex 5 5 35
      vertex 5 33 40
    endloop
  endfacet
  facet normal 1 0 0
    outer loop
      vertex 5 33 40
      vertex 5 5 35
      vertex 5 33.2447 38.4549
    endloop
  endfacet
  facet normal 1 0 0
    outer loop
      vertex 5 33.2447 38.4549
      vertex 5 5 35
      vertex 5 33.9549 37.0611
    endloop
  endfacet
  facet normal 1 0 0
    outer loop
      vertex 5 5 15
      vertex 5 33.9549 37.0611
      vertex 5 5 35
    endloop
  endfacet
  facet normal 1 0 0
    outer loop
      vertex 5 64 8.4641
      vertex 5 11.6667 5
      vertex 5 64 5
    endloop
  endfacet
  facet normal 1 -0 0
    outer loop
      vertex 5 0 39
      vertex 5 5 35
      vertex 5 12.1244 60
    endloop
  endfacet
  facet normal 1 0 0
    outer loop
      vertex 5 5 35
      vertex 5 0 39
      vertex 5 0 35
    endloop
  endfacet
  facet normal -0 0 1
    outer loop
      vertex 0 70 60
      vertex 5 12.1244 60
      vertex 5 70 60
    endloop
  endfacet
  facet normal 0 0 1
    outer loop
      vertex 5 12.1244 60
      vertex 0 70 60
      vertex 0 12.1244 60
    endloop
  endfacet
  facet normal 0 0 -1
    outer loop
      vertex 0 6.12436 0
      vertex 40 70 0
      vertex 40 6.12436 0
    endloop
  endfacet
  facet normal -0 0 -1
    outer loop
      vertex 40 70 0
      vertex 0 6.12436 0
      vertex 0 70 0
    endloop
  endfacet
  facet normal -1 0 0
    outer loop
      vertex 0 70 0
      vertex 0 12.1244 60
      vertex 0 70 60
    endloop
  endfacet
  facet normal -1 0 0
    outer loop
      vertex 0 0 39
      vertex 0 70 0
      vertex 0 6.12436 0
    endloop
  endfacet
  facet normal -1 0 0
    outer loop
      vertex 0 0 39
      vertex 0 6.12436 0
      vertex 0 0 10.6077
    endloop
  endfacet
  facet normal -1 0 0
    outer loop
      vertex 0 70 0
      vertex 0 0 39
      vertex 0 12.1244 60
    endloop
  endfacet
  facet normal 0 1 -0
    outer loop
      vertex 40 70 0
      vertex 33 70 5
      vertex 40 70 5
    endloop
  endfacet
  facet normal 0 1 0
    outer loop
      vertex 0 70 0
      vertex 33 70 5
      vertex 40 70 0
    endloop
  endfacet
  facet normal 0 1 -0
    outer loop
      vertex 5 70 5
      vertex 0 70 60
      vertex 5 70 60
    endloop
  endfacet
  facet normal 0 1 0
    outer loop
      vertex 5 70 5
      vertex 0 70 0
      vertex 0 70 60
    endloop
  endfacet
  facet normal 0 1 0
    outer loop
      vertex 33 70 5
      vertex 0 70 0
      vertex 5 70 5
    endloop
  endfacet
  facet normal 0 -1 0
    outer loop
      vertex 0 0 39
      vertex 5 0 35
      vertex 5 0 39
    endloop
  endfacet
  facet normal 0 -1 0
    outer loop
      vertex 25 0 25
      vertex 5 0 35
      vertex 15 0 25
    endloop
  endfacet
  facet normal 0 -1 0
    outer loop
      vertex 0 0 10.6077
      vertex 5 0 35
      vertex 0 0 39
    endloop
  endfacet
  facet normal 0 -1 -0
    outer loop
      vertex 5 0 35
      vertex 0 0 10.6077
      vertex 15 0 25
    endloop
  endfacet
  facet normal 0 -1 -0
    outer loop
      vertex 15 0 15
      vertex 0 0 10.6077
      vertex 25 0 15
    endloop
  endfacet
  facet normal 0 -1 -0
    outer loop
      vertex 15 0 25
      vertex 0 0 10.6077
      vertex 15 0 15
    endloop
  endfacet
  facet normal 0 -1 0
    outer loop
      vertex 5 0 35
      vertex 25 0 25
      vertex 40 0 35
    endloop
  endfacet
  facet normal 0 -1 0
    outer loop
      vertex 40 0 10.6077
      vertex 25 0 25
      vertex 25 0 15
    endloop
  endfacet
  facet normal 0 -1 0
    outer loop
      vertex 25 0 25
      vertex 40 0 10.6077
      vertex 40 0 35
    endloop
  endfacet
  facet normal 0 -1 0
    outer loop
      vertex 40 0 10.6077
      vertex 25 0 15
      vertex 0 0 10.6077
    endloop
  endfacet
  facet normal 1 0 0
    outer loop
      vertex 40 5 35
      vertex 40 0 35
      vertex 40 5 15
    endloop
  endfacet
  facet normal 1 0 0
    outer loop
      vertex 40 60 8.4641
      vertex 40 15 8.4641
      vertex 40 60 5
    endloop
  endfacet
  facet normal 1 -0 0
    outer loop
      vertex 40 60 5
      vertex 40 70 0
      vertex 40 70 5
    endloop
  endfacet
  facet normal 1 0 0
    outer loop
      vertex 40 15 5
      vertex 40 60 5
      vertex 40 15 8.4641
    endloop
  endfacet
  facet normal 1 0 0
    outer loop
      vertex 40 6.12436 0
      vertex 40 60 5
      vertex 40 15 5
    endloop
  endfacet
  facet normal 1 0 0
    outer loop
      vertex 40 6.12436 0
      vertex 40 15 5
      vertex 40 11.6667 5
    endloop
  endfacet
  facet normal 1 0 0
    outer loop
      vertex 40 60 5
      vertex 40 6.12436 0
      vertex 40 70 0
    endloop
  endfacet
  facet normal 1 -0 0
    outer loop
      vertex 40 0 10.6077
      vertex 40 11.6667 5
      vertex 40 5 15
    endloop
  endfacet
  facet normal 1 0 0
    outer loop
      vertex 40 0 10.6077
      vertex 40 5 15
      vertex 40 0 35
    endloop
  endfacet
  facet normal 1 0 0
    outer loop
      vertex 40 11.6667 5
      vertex 40 0 10.6077
      vertex 40 6.12436 0
    endloop
  endfacet
  facet normal -0 0 1
    outer loop
      vertex 33 64 5
      vertex 40 60 5
      vertex 40 70 5
    endloop
  endfacet
  facet normal 0 0 1
    outer loop
      vertex 40 60 5
      vertex 33 64 5
      vertex 34 60 5
    endloop
  endfacet
  facet normal 0 0 1
    outer loop
      vertex 33 64 5
      vertex 40 70 5
      vertex 33 70 5
    endloop
  endfacet
  facet normal -0 0 1
    outer loop
      vertex 34 15 5
      vertex 40 11.6667 5
      vertex 40 15 5
    endloop
  endfacet
  facet normal -0 0 1
    outer loop
      vertex 5 64 5
      vertex 34 60 5
      vertex 33 64 5
    endloop
  endfacet
  facet normal 0 0 1
    outer loop
      vertex 5 11.6667 5
      vertex 34 60 5
      vertex 5 64 5
    endloop
  endfacet
  facet normal 0 0 1
    outer loop
      vertex 34 15 5
      vertex 5 11.6667 5
      vertex 40 11.6667 5
    endloop
  endfacet
  facet normal 0 0 1
    outer loop
      vertex 34 60 5
      vertex 5 11.6667 5
      vertex 34 15 5
    endloop
  endfacet
  facet normal -0 0 1
    outer loop
      vertex 5 5 35
      vertex 40 0 35
      vertex 40 5 35
    endloop
  endfacet
  facet normal 0 0 1
    outer loop
      vertex 40 0 35
      vertex 5 5 35
      vertex 5 0 35
    endloop
  endfacet
  facet normal 0 0 -1
    outer loop
      vertex 15 0 25
      vertex 25 5 25
      vertex 25 0 25
    endloop
  endfacet
  facet normal -0 0 -1
    outer loop
      vertex 25 5 25
      vertex 15 0 25
      vertex 15 5 25
    endloop
  endfacet
  facet normal 0 1 0
    outer loop
      vertex 40 5 35
      vertex 25 5 25
      vertex 5 5 35
    endloop
  endfacet
  facet normal 0 1 -0
    outer loop
      vertex 40 5 15
      vertex 25 5 25
      vertex 40 5 35
    endloop
  endfacet
  facet normal 0 1 0
    outer loop
      vertex 25 5 25
      vertex 40 5 15
      vertex 25 5 15
    endloop
  endfacet
  facet normal 0 1 -0
    outer loop
      vertex 15 5 25
      vertex 5 5 35
      vertex 25 5 25
    endloop
  endfacet
  facet normal 0 1 0
    outer loop
      vertex 5 5 15
      vertex 15 5 25
      vertex 15 5 15
    endloop
  endfacet
  facet normal 0 1 0
    outer loop
      vertex 15 5 25
      vertex 5 5 15
      vertex 5 5 35
    endloop
  endfacet
  facet normal 1 -0 0
    outer loop
      vertex 15 0 25
      vertex 15 5 15
      vertex 15 5 25
    endloop
  endfacet
  facet normal 1 0 0
    outer loop
      vertex 15 5 15
      vertex 15 0 25
      vertex 15 0 15
    endloop
  endfacet
  facet normal -0 0 1
    outer loop
      vertex 15 5 15
      vertex 25 0 15
      vertex 25 5 15
    endloop
  endfacet
  facet normal 0 0 1
    outer loop
      vertex 25 0 15
      vertex 15 5 15
      vertex 15 0 15
    endloop
  endfacet
  facet normal -1 0 0
    outer loop
      vertex 25 0 15
      vertex 25 5 25
      vertex 25 5 15
    endloop
  endfacet
  facet normal -1 -0 0
    outer loop
      vertex 25 5 25
      vertex 25 0 15
      vertex 25 0 25
    endloop
  endfacet
  facet normal 0 0.707107 0.707107
    outer loop
      vertex 34 42.0451 42.9389
      vertex 5 40.9389 44.0451
      vertex 34 40.9389 44.0451
    endloop
  endfacet
  facet normal 0 0.707107 0.707107
    outer loop
      vertex 5 40.9389 44.0451
      vertex 34 42.0451 42.9389
      vertex 5 42.0451 42.9389
    endloop
  endfacet
  facet normal 0 0.156422 -0.98769
    outer loop
      vertex 5 38 35
      vertex 34 39.5451 35.2447
      vertex 34 38 35
    endloop
  endfacet
  facet normal 0 0.156422 -0.98769
    outer loop
      vertex 34 39.5451 35.2447
      vertex 5 38 35
      vertex 5 39.5451 35.2447
    endloop
  endfacet
  facet normal 0 -0.707107 -0.707107
    outer loop
      vertex 5 35.0611 35.9549
      vertex 34 33.9549 37.0611
      vertex 5 33.9549 37.0611
    endloop
  endfacet
  facet normal 0 -0.707107 -0.707107
    outer loop
      vertex 34 33.9549 37.0611
      vertex 5 35.0611 35.9549
      vertex 34 35.0611 35.9549
    endloop
  endfacet
  facet normal -0 0.156422 0.98769
    outer loop
      vertex 5 39.5451 44.7553
      vertex 34 38 45
      vertex 34 39.5451 44.7553
    endloop
  endfacet
  facet normal 0 0.156422 0.98769
    outer loop
      vertex 34 38 45
      vertex 5 39.5451 44.7553
      vertex 5 38 45
    endloop
  endfacet
  facet normal 0 0.454002 -0.891
    outer loop
      vertex 5 39.5451 35.2447
      vertex 34 40.9389 35.9549
      vertex 34 39.5451 35.2447
    endloop
  endfacet
  facet normal 0 0.454002 -0.891
    outer loop
      vertex 34 40.9389 35.9549
      vertex 5 39.5451 35.2447
      vertex 5 40.9389 35.9549
    endloop
  endfacet
  facet normal 0 -0.98769 -0.156422
    outer loop
      vertex 5 33.2447 38.4549
      vertex 34 33 40
      vertex 5 33 40
    endloop
  endfacet
  facet normal 0 -0.98769 -0.156422
    outer loop
      vertex 34 33 40
      vertex 5 33.2447 38.4549
      vertex 34 33.2447 38.4549
    endloop
  endfacet
  facet normal 0 -0.707107 0.707107
    outer loop
      vertex 5 33.9549 42.9389
      vertex 34 35.0611 44.0451
      vertex 5 35.0611 44.0451
    endloop
  endfacet
  facet normal 0 -0.707107 0.707107
    outer loop
      vertex 34 35.0611 44.0451
      vertex 5 33.9549 42.9389
      vertex 34 33.9549 42.9389
    endloop
  endfacet
  facet normal 0 0.707107 -0.707107
    outer loop
      vertex 34 40.9389 35.9549
      vertex 5 42.0451 37.0611
      vertex 34 42.0451 37.0611
    endloop
  endfacet
  facet normal 0 0.707107 -0.707107
    outer loop
      vertex 5 42.0451 37.0611
      vertex 34 40.9389 35.9549
      vertex 5 40.9389 35.9549
    endloop
  endfacet
  facet normal 0 -0.156422 0.98769
    outer loop
      vertex 5 38 45
      vertex 34 36.4549 44.7553
      vertex 34 38 45
    endloop
  endfacet
  facet normal 0 -0.156422 0.98769
    outer loop
      vertex 34 36.4549 44.7553
      vertex 5 38 45
      vertex 5 36.4549 44.7553
    endloop
  endfacet
  facet normal 0 -0.891 -0.454002
    outer loop
      vertex 5 33.9549 37.0611
      vertex 34 33.2447 38.4549
      vertex 5 33.2447 38.4549
    endloop
  endfacet
  facet normal 0 -0.891 -0.454002
    outer loop
      vertex 34 33.2447 38.4549
      vertex 5 33.9549 37.0611
      vertex 34 33.9549 37.0611
    endloop
  endfacet
  facet normal 0 0.891 -0.454002
    outer loop
      vertex 34 42.0451 37.0611
      vertex 5 42.7553 38.4549
      vertex 34 42.7553 38.4549
    endloop
  endfacet
  facet normal 0 0.891 -0.454002
    outer loop
      vertex 5 42.7553 38.4549
      vertex 34 42.0451 37.0611
      vertex 5 42.0451 37.0611
    endloop
  endfacet
  facet normal 0 0.98769 0.156422
    outer loop
      vertex 34 43 40
      vertex 5 42.7553 41.5451
      vertex 34 42.7553 41.5451
    endloop
  endfacet
  facet normal 0 0.98769 0.156422
    outer loop
      vertex 5 42.7553 41.5451
      vertex 34 43 40
      vertex 5 43 40
    endloop
  endfacet
  facet normal 0 0.98769 -0.156422
    outer loop
      vertex 34 42.7553 38.4549
      vertex 5 43 40
      vertex 34 43 40
    endloop
  endfacet
  facet normal 0 0.98769 -0.156422
    outer loop
      vertex 5 43 40
      vertex 34 42.7553 38.4549
      vertex 5 42.7553 38.4549
    endloop
  endfacet
  facet normal 0 -0.98769 0.156422
    outer loop
      vertex 5 33 40
      vertex 34 33.2447 41.5451
      vertex 5 33.2447 41.5451
    endloop
  endfacet
  facet normal 0 -0.98769 0.156422
    outer loop
      vertex 34 33.2447 41.5451
      vertex 5 33 40
      vertex 34 33 40
    endloop
  endfacet
  facet normal 0 0.891 0.454002
    outer loop
      vertex 34 42.7553 41.5451
      vertex 5 42.0451 42.9389
      vertex 34 42.0451 42.9389
    endloop
  endfacet
  facet normal 0 0.891 0.454002
    outer loop
      vertex 5 42.0451 42.9389
      vertex 34 42.7553 41.5451
      vertex 5 42.7553 41.5451
    endloop
  endfacet
  facet normal 0 -0.454002 0.891
    outer loop
      vertex 5 36.4549 44.7553
      vertex 34 35.0611 44.0451
      vertex 34 36.4549 44.7553
    endloop
  endfacet
  facet normal 0 -0.454002 0.891
    outer loop
      vertex 34 35.0611 44.0451
      vertex 5 36.4549 44.7553
      vertex 5 35.0611 44.0451
    endloop
  endfacet
  facet normal 0 -0.891 0.454002
    outer loop
      vertex 5 33.2447 41.5451
      vertex 34 33.9549 42.9389
      vertex 5 33.9549 42.9389
    endloop
  endfacet
  facet normal 0 -0.891 0.454002
    outer loop
      vertex 34 33.9549 42.9389
      vertex 5 33.2447 41.5451
      vertex 34 33.2447 41.5451
    endloop
  endfacet
  facet normal -0 0.454002 0.891
    outer loop
      vertex 5 40.9389 44.0451
      vertex 34 39.5451 44.7553
      vertex 34 40.9389 44.0451
    endloop
  endfacet
  facet normal 0 0.454002 0.891
    outer loop
      vertex 34 39.5451 44.7553
      vertex 5 40.9389 44.0451
      vertex 5 39.5451 44.7553
    endloop
  endfacet
  facet normal 0 -0.454002 -0.891
    outer loop
      vertex 5 35.0611 35.9549
      vertex 34 36.4549 35.2447
      vertex 34 35.0611 35.9549
    endloop
  endfacet
  facet normal -0 -0.454002 -0.891
    outer loop
      vertex 34 36.4549 35.2447
      vertex 5 35.0611 35.9549
      vertex 5 36.4549 35.2447
    endloop
  endfacet
  facet normal 0 -0.156422 -0.98769
    outer loop
      vertex 5 36.4549 35.2447
      vertex 34 38 35
      vertex 34 36.4549 35.2447
    endloop
  endfacet
  facet normal -0 -0.156422 -0.98769
    outer loop
      vertex 34 38 35
      vertex 5 36.4549 35.2447
      vertex 5 38 35
    endloop
  endfacet
  facet normal -0.509816 0.134567 -0.849694
    outer loop
      vertex 39 38 32
      vertex 34 38 35
      vertex 34 39.5451 35.2447
    endloop
  endfacet
  facet normal -0.509817 -0.849693 -0.134564
    outer loop
      vertex 39 30 40
      vertex 34 33.2447 38.4549
      vertex 39 30.3915 37.5279
    endloop
  endfacet
  facet normal -0.509817 0.849693 -0.134564
    outer loop
      vertex 39 45.6085 37.5279
      vertex 34 42.7553 38.4549
      vertex 39 46 40
    endloop
  endfacet
  facet normal -0.509813 -0.390572 0.766515
    outer loop
      vertex 34 36.4549 44.7553
      vertex 34 35.0611 44.0451
      vertex 39 33.2977 46.4721
    endloop
  endfacet
  facet normal -0.509816 0.849694 0.134567
    outer loop
      vertex 34 43 40
      vertex 34 42.7553 41.5451
      vertex 39 46 40
    endloop
  endfacet
  facet normal -0.509815 0.390576 0.766511
    outer loop
      vertex 39 42.7023 46.4721
      vertex 34 39.5451 44.7553
      vertex 39 40.4721 47.6085
    endloop
  endfacet
  facet normal -0.509815 -0.766511 0.390576
    outer loop
      vertex 39 31.5279 44.7023
      vertex 34 33.2447 41.5451
      vertex 39 30.3915 42.4721
    endloop
  endfacet
  facet normal -0.509815 0.390576 -0.766511
    outer loop
      vertex 39 40.4721 32.3915
      vertex 34 39.5451 35.2447
      vertex 39 42.7023 33.5279
    endloop
  endfacet
  facet normal -0.509816 -0.849694 -0.134567
    outer loop
      vertex 39 30 40
      vertex 34 33 40
      vertex 34 33.2447 38.4549
    endloop
  endfacet
  facet normal -0.509816 -0.134567 0.849694
    outer loop
      vertex 34 38 45
      vertex 34 36.4549 44.7553
      vertex 39 38 48
    endloop
  endfacet
  facet normal -0.509817 -0.849693 0.134564
    outer loop
      vertex 39 30.3915 42.4721
      vertex 34 33.2447 41.5451
      vertex 39 30 40
    endloop
  endfacet
  facet normal -0.509813 0.766515 0.390572
    outer loop
      vertex 34 42.7553 41.5451
      vertex 34 42.0451 42.9389
      vertex 39 44.4721 44.7023
    endloop
  endfacet
  facet normal -0.509816 -0.134567 -0.849694
    outer loop
      vertex 39 38 32
      vertex 34 36.4549 35.2447
      vertex 34 38 35
    endloop
  endfacet
  facet normal -0.509813 -0.766515 -0.390572
    outer loop
      vertex 39 31.5279 35.2977
      vertex 34 33.2447 38.4549
      vertex 34 33.9549 37.0611
    endloop
  endfacet
  facet normal -0.509817 0.134564 -0.849693
    outer loop
      vertex 39 38 32
      vertex 34 39.5451 35.2447
      vertex 39 40.4721 32.3915
    endloop
  endfacet
  facet normal -0.509813 -0.766515 0.390572
    outer loop
      vertex 34 33.9549 42.9389
      vertex 34 33.2447 41.5451
      vertex 39 31.5279 44.7023
    endloop
  endfacet
  facet normal -0.509813 0.390572 0.766515
    outer loop
      vertex 34 40.9389 44.0451
      vertex 34 39.5451 44.7553
      vertex 39 42.7023 46.4721
    endloop
  endfacet
  facet normal -0.509815 -0.608313 -0.608313
    outer loop
      vertex 34 35.0611 35.9549
      vertex 39 31.5279 35.2977
      vertex 34 33.9549 37.0611
    endloop
  endfacet
  facet normal -0.509815 -0.608313 -0.608313
    outer loop
      vertex 39 31.5279 35.2977
      vertex 34 35.0611 35.9549
      vertex 39 33.2977 33.5279
    endloop
  endfacet
  facet normal -0.509815 -0.390576 -0.766511
    outer loop
      vertex 39 33.2977 33.5279
      vertex 34 36.4549 35.2447
      vertex 39 35.5279 32.3915
    endloop
  endfacet
  facet normal 1 0 0
    outer loop
      vertex 39 45.6085 42.4721
      vertex 39 45.6085 37.5279
      vertex 39 46 40
    endloop
  endfacet
  facet normal 1 0 0
    outer loop
      vertex 39 44.4721 44.7023
      vertex 39 45.6085 37.5279
      vertex 39 45.6085 42.4721
    endloop
  endfacet
  facet normal 1 0 0
    outer loop
      vertex 39 44.4721 44.7023
      vertex 39 44.4721 35.2977
      vertex 39 45.6085 37.5279
    endloop
  endfacet
  facet normal 1 0 0
    outer loop
      vertex 39 42.7023 46.4721
      vertex 39 44.4721 35.2977
      vertex 39 44.4721 44.7023
    endloop
  endfacet
  facet normal 1 0 0
    outer loop
      vertex 39 42.7023 46.4721
      vertex 39 42.7023 33.5279
      vertex 39 44.4721 35.2977
    endloop
  endfacet
  facet normal 1 0 0
    outer loop
      vertex 39 40.4721 47.6085
      vertex 39 42.7023 33.5279
      vertex 39 42.7023 46.4721
    endloop
  endfacet
  facet normal 1 0 0
    outer loop
      vertex 39 40.4721 47.6085
      vertex 39 40.4721 32.3915
      vertex 39 42.7023 33.5279
    endloop
  endfacet
  facet normal 1 0 0
    outer loop
      vertex 39 38 48
      vertex 39 40.4721 32.3915
      vertex 39 40.4721 47.6085
    endloop
  endfacet
  facet normal 1 0 0
    outer loop
      vertex 39 38 48
      vertex 39 38 32
      vertex 39 40.4721 32.3915
    endloop
  endfacet
  facet normal 1 -0 0
    outer loop
      vertex 39 35.5279 47.6085
      vertex 39 38 32
      vertex 39 38 48
    endloop
  endfacet
  facet normal 1 0 0
    outer loop
      vertex 39 35.5279 47.6085
      vertex 39 35.5279 32.3915
      vertex 39 38 32
    endloop
  endfacet
  facet normal 1 -0 0
    outer loop
      vertex 39 33.2977 46.4721
      vertex 39 35.5279 32.3915
      vertex 39 35.5279 47.6085
    endloop
  endfacet
  facet normal 1 0 0
    outer loop
      vertex 39 33.2977 46.4721
      vertex 39 33.2977 33.5279
      vertex 39 35.5279 32.3915
    endloop
  endfacet
  facet normal 1 -0 0
    outer loop
      vertex 39 31.5279 44.7023
      vertex 39 33.2977 33.5279
      vertex 39 33.2977 46.4721
    endloop
  endfacet
  facet normal 1 0 0
    outer loop
      vertex 39 31.5279 44.7023
      vertex 39 31.5279 35.2977
      vertex 39 33.2977 33.5279
    endloop
  endfacet
  facet normal 1 -0 0
    outer loop
      vertex 39 30.3915 42.4721
      vertex 39 31.5279 35.2977
      vertex 39 31.5279 44.7023
    endloop
  endfacet
  facet normal 1 0 0
    outer loop
      vertex 39 30.3915 42.4721
      vertex 39 30.3915 37.5279
      vertex 39 31.5279 35.2977
    endloop
  endfacet
  facet normal 1 0 -0
    outer loop
      vertex 39 30.3915 37.5279
      vertex 39 30.3915 42.4721
      vertex 39 30 40
    endloop
  endfacet
  facet normal -0.509816 -0.849694 0.134567
    outer loop
      vertex 34 33.2447 41.5451
      vertex 34 33 40
      vertex 39 30 40
    endloop
  endfacet
  facet normal -0.509815 -0.766511 -0.390576
    outer loop
      vertex 39 30.3915 37.5279
      vertex 34 33.2447 38.4549
      vertex 39 31.5279 35.2977
    endloop
  endfacet
  facet normal -0.509813 -0.390572 -0.766515
    outer loop
      vertex 39 33.2977 33.5279
      vertex 34 35.0611 35.9549
      vertex 34 36.4549 35.2447
    endloop
  endfacet
  facet normal -0.509813 0.766515 -0.390572
    outer loop
      vertex 39 44.4721 35.2977
      vertex 34 42.0451 37.0611
      vertex 34 42.7553 38.4549
    endloop
  endfacet
  facet normal -0.509815 0.608313 0.608313
    outer loop
      vertex 39 44.4721 44.7023
      vertex 34 40.9389 44.0451
      vertex 39 42.7023 46.4721
    endloop
  endfacet
  facet normal -0.509815 0.608313 0.608313
    outer loop
      vertex 34 40.9389 44.0451
      vertex 39 44.4721 44.7023
      vertex 34 42.0451 42.9389
    endloop
  endfacet
  facet normal -0.509815 -0.390576 0.766511
    outer loop
      vertex 39 35.5279 47.6085
      vertex 34 36.4549 44.7553
      vertex 39 33.2977 46.4721
    endloop
  endfacet
  facet normal -0.509817 -0.134564 0.849693
    outer loop
      vertex 39 38 48
      vertex 34 36.4549 44.7553
      vertex 39 35.5279 47.6085
    endloop
  endfacet
  facet normal -0.509815 0.766511 0.390576
    outer loop
      vertex 39 45.6085 42.4721
      vertex 34 42.7553 41.5451
      vertex 39 44.4721 44.7023
    endloop
  endfacet
  facet normal -0.509817 0.849693 0.134564
    outer loop
      vertex 39 46 40
      vertex 34 42.7553 41.5451
      vertex 39 45.6085 42.4721
    endloop
  endfacet
  facet normal -0.509817 -0.134564 -0.849693
    outer loop
      vertex 39 35.5279 32.3915
      vertex 34 36.4549 35.2447
      vertex 39 38 32
    endloop
  endfacet
  facet normal -0.509815 -0.608313 0.608313
    outer loop
      vertex 34 35.0611 44.0451
      vertex 39 31.5279 44.7023
      vertex 39 33.2977 46.4721
    endloop
  endfacet
  facet normal -0.509815 -0.608313 0.608313
    outer loop
      vertex 39 31.5279 44.7023
      vertex 34 35.0611 44.0451
      vertex 34 33.9549 42.9389
    endloop
  endfacet
  facet normal -0.509815 0.608313 -0.608313
    outer loop
      vertex 39 44.4721 35.2977
      vertex 34 40.9389 35.9549
      vertex 34 42.0451 37.0611
    endloop
  endfacet
  facet normal -0.509815 0.608313 -0.608313
    outer loop
      vertex 34 40.9389 35.9549
      vertex 39 44.4721 35.2977
      vertex 39 42.7023 33.5279
    endloop
  endfacet
  facet normal -0.509813 0.390572 -0.766515
    outer loop
      vertex 39 42.7023 33.5279
      vertex 34 39.5451 35.2447
      vertex 34 40.9389 35.9549
    endloop
  endfacet
  facet normal -0.509816 0.849694 -0.134567
    outer loop
      vertex 39 46 40
      vertex 34 42.7553 38.4549
      vertex 34 43 40
    endloop
  endfacet
  facet normal -0.509815 0.766511 -0.390576
    outer loop
      vertex 39 44.4721 35.2977
      vertex 34 42.7553 38.4549
      vertex 39 45.6085 37.5279
    endloop
  endfacet
  facet normal -0.509816 0.134567 0.849694
    outer loop
      vertex 34 39.5451 44.7553
      vertex 34 38 45
      vertex 39 38 48
    endloop
  endfacet
  facet normal -0.509817 0.134564 0.849693
    outer loop
      vertex 39 40.4721 47.6085
      vertex 34 39.5451 44.7553
      vertex 39 38 48
    endloop
  endfacet
  facet normal 0 0.832049 0.554702
    outer loop
      vertex 40 11.6667 5
      vertex 25 5 15
      vertex 40 5 15
    endloop
  endfacet
  facet normal -0 0.832049 0.554702
    outer loop
      vertex 5 11.6667 5
      vertex 25 5 15
      vertex 40 11.6667 5
    endloop
  endfacet
  facet normal 0 0.832049 0.554702
    outer loop
      vertex 25 5 15
      vertex 5 11.6667 5
      vertex 15 5 15
    endloop
  endfacet
  facet normal 0 0.832049 0.554702
    outer loop
      vertex 15 5 15
      vertex 5 11.6667 5
      vertex 5 5 15
    endloop
  endfacet
  facet normal -0.5 0 0.866026
    outer loop
      vertex 34 60 5
      vertex 40 15 8.4641
      vertex 40 60 8.4641
    endloop
  endfacet
  facet normal -0.5 0 0.866026
    outer loop
      vertex 40 15 8.4641
      vertex 34 60 5
      vertex 34 15 5
    endloop
  endfacet
  facet normal 0 -1 -0
    outer loop
      vertex 40 15 8.4641
      vertex 34 15 5
      vertex 40 15 5
    endloop
  endfacet
  facet normal 0 1 -0
    outer loop
      vertex 40 60 5
      vertex 34 60 5
      vertex 40 60 8.4641
    endloop
  endfacet
  facet normal 0 -1 0
    outer loop
      vertex 5 64 5
      vertex 33 64 8.4641
      vertex 5 64 8.4641
    endloop
  endfacet
  facet normal 0 -1 -0
    outer loop
      vertex 33 64 8.4641
      vertex 5 64 5
      vertex 33 64 5
    endloop
  endfacet
  facet normal -0 0.5 0.866026
    outer loop
      vertex 5 70 5
      vertex 33 64 8.4641
      vertex 33 70 5
    endloop
  endfacet
  facet normal 0 0.5 0.866026
    outer loop
      vertex 33 64 8.4641
      vertex 5 70 5
      vertex 5 64 8.4641
    endloop
  endfacet
  facet normal 1 0 0
    outer loop
      vertex 33 64 8.4641
      vertex 33 64 5
      vertex 33 70 5
    endloop
  endfacet
  facet normal 0 -0.866025 0.500001
    outer loop
      vertex 0 0 39
      vertex 5 12.1244 60
      vertex 0 12.1244 60
    endloop
  endfacet
  facet normal 0 -0.866025 0.500001
    outer loop
      vertex 5 12.1244 60
      vertex 0 0 39
      vertex 5 0 39
    endloop
  endfacet
  facet normal 0 -0.866025 -0.5
    outer loop
      vertex 0 6.12436 0
      vertex 40 0 10.6077
      vertex 0 0 10.6077
    endloop
  endfacet
  facet normal 0 -0.866025 -0.5
    outer loop
      vertex 40 0 10.6077
      vertex 0 6.12436 0
      vertex 40 6.12436 0
    endloop
  endfacet
endsolid OpenSCAD_Model
