solid OpenSCAD_Model
  facet normal 1 0 0
    outer loop
      vertex 5 35.0611 33.9549
      vertex 5 5 15
      vertex 5 11.6667 5
    endloop
  endfacet
  facet normal 1 0 0
    outer loop
      vertex 5 70 70
      vertex 5 43 38
      vertex 5 70 5
    endloop
  endfacet
  facet normal 1 0 0
    outer loop
      vertex 5 70 70
      vertex 5 42.7553 39.5451
      vertex 5 43 38
    endloop
  endfacet
  facet normal 1 0 0
    outer loop
      vertex 5 70 70
      vertex 5 42.0451 40.9389
      vertex 5 42.7553 39.5451
    endloop
  endfacet
  facet normal 1 0 0
    outer loop
      vertex 5 70 70
      vertex 5 40.9389 42.0451
      vertex 5 42.0451 40.9389
    endloop
  endfacet
  facet normal 1 0 0
    outer loop
      vertex 5 70 70
      vertex 5 39.5451 42.7553
      vertex 5 40.9389 42.0451
    endloop
  endfacet
  facet normal 1 -0 0
    outer loop
      vertex 5 17.8979 70
      vertex 5 39.5451 42.7553
      vertex 5 70 70
    endloop
  endfacet
  facet normal 1 0 0
    outer loop
      vertex 5 39.5451 42.7553
      vertex 5 17.8979 70
      vertex 5 38 43
    endloop
  endfacet
  facet normal 1 0 0
    outer loop
      vertex 5 38 43
      vertex 5 17.8979 70
      vertex 5 36.4549 42.7553
    endloop
  endfacet
  facet normal 1 0 0
    outer loop
      vertex 5 33.9549 40.9389
      vertex 5 5 35
      vertex 5 33.2447 39.5451
    endloop
  endfacet
  facet normal 1 0 0
    outer loop
      vertex 5 5 35
      vertex 5 33.9549 40.9389
      vertex 5 17.8979 70
    endloop
  endfacet
  facet normal 1 0 0
    outer loop
      vertex 5 35.0611 42.0451
      vertex 5 17.8979 70
      vertex 5 33.9549 40.9389
    endloop
  endfacet
  facet normal 1 0 0
    outer loop
      vertex 5 36.4549 42.7553
      vertex 5 17.8979 70
      vertex 5 35.0611 42.0451
    endloop
  endfacet
  facet normal 1 -0 0
    outer loop
      vertex 5 42.7553 36.4549
      vertex 5 70 5
      vertex 5 43 38
    endloop
  endfacet
  facet normal 1 -0 0
    outer loop
      vertex 5 42.0451 35.0611
      vertex 5 70 5
      vertex 5 42.7553 36.4549
    endloop
  endfacet
  facet normal 1 -0 0
    outer loop
      vertex 5 40.9389 33.9549
      vertex 5 70 5
      vertex 5 42.0451 35.0611
    endloop
  endfacet
  facet normal 1 -0 0
    outer loop
      vertex 5 39.5451 33.2447
      vertex 5 70 5
      vertex 5 40.9389 33.9549
    endloop
  endfacet
  facet normal 1 -0 0
    outer loop
      vertex 5 38 33
      vertex 5 70 5
      vertex 5 39.5451 33.2447
    endloop
  endfacet
  facet normal 1 0 0
    outer loop
      vertex 5 11.6667 5
      vertex 5 38 33
      vertex 5 36.4549 33.2447
    endloop
  endfacet
  facet normal 1 0 0
    outer loop
      vertex 5 11.6667 5
      vertex 5 36.4549 33.2447
      vertex 5 35.0611 33.9549
    endloop
  endfacet
  facet normal 1 0 0
    outer loop
      vertex 5 33.2447 39.5451
      vertex 5 5 35
      vertex 5 33 38
    endloop
  endfacet
  facet normal 1 0 0
    outer loop
      vertex 5 38 33
      vertex 5 11.6667 5
      vertex 5 70 5
    endloop
  endfacet
  facet normal 1 0 0
    outer loop
      vertex 5 5 15
      vertex 5 35.0611 33.9549
      vertex 5 33.9549 35.0611
    endloop
  endfacet
  facet normal 1 0 0
    outer loop
      vertex 5 5 35
      vertex 5 33.9549 35.0611
      vertex 5 33.2447 36.4549
    endloop
  endfacet
  facet normal 1 0 0
    outer loop
      vertex 5 33 38
      vertex 5 5 35
      vertex 5 33.2447 36.4549
    endloop
  endfacet
  facet normal 1 0 0
    outer loop
      vertex 5 5 15
      vertex 5 33.9549 35.0611
      vertex 5 5 35
    endloop
  endfacet
  facet normal 1 -0 0
    outer loop
      vertex 5 0 39
      vertex 5 5 35
      vertex 5 17.8979 70
    endloop
  endfacet
  facet normal 1 0 0
    outer loop
      vertex 5 5 35
      vertex 5 0 39
      vertex 5 0 35
    endloop
  endfacet
  facet normal -0 0 1
    outer loop
      vertex 0 70 70
      vertex 5 17.8979 70
      vertex 5 70 70
    endloop
  endfacet
  facet normal 0 0 1
    outer loop
      vertex 5 17.8979 70
      vertex 0 70 70
      vertex 0 17.8979 70
    endloop
  endfacet
  facet normal 0 0 -1
    outer loop
      vertex 0 6.12436 0
      vertex 40 70 0
      vertex 40 6.12436 0
    endloop
  endfacet
  facet normal -0 0 -1
    outer loop
      vertex 40 70 0
      vertex 0 6.12436 0
      vertex 0 70 0
    endloop
  endfacet
  facet normal -1 0 0
    outer loop
      vertex 0 70 0
      vertex 0 17.8979 70
      vertex 0 70 70
    endloop
  endfacet
  facet normal -1 0 0
    outer loop
      vertex 0 0 39
      vertex 0 70 0
      vertex 0 6.12436 0
    endloop
  endfacet
  facet normal -1 0 0
    outer loop
      vertex 0 0 39
      vertex 0 6.12436 0
      vertex 0 0 10.6077
    endloop
  endfacet
  facet normal -1 0 0
    outer loop
      vertex 0 70 0
      vertex 0 0 39
      vertex 0 17.8979 70
    endloop
  endfacet
  facet normal 0 1 0
    outer loop
      vertex 40 70 5
      vertex 40 70 0
      vertex 5 70 5
    endloop
  endfacet
  facet normal 0 1 -0
    outer loop
      vertex 5 70 5
      vertex 0 70 70
      vertex 5 70 70
    endloop
  endfacet
  facet normal 0 1 0
    outer loop
      vertex 5 70 5
      vertex 0 70 0
      vertex 0 70 70
    endloop
  endfacet
  facet normal 0 1 0
    outer loop
      vertex 0 70 0
      vertex 5 70 5
      vertex 40 70 0
    endloop
  endfacet
  facet normal 0 -1 0
    outer loop
      vertex 0 0 39
      vertex 5 0 35
      vertex 5 0 39
    endloop
  endfacet
  facet normal 0 -1 0
    outer loop
      vertex 25 0 25
      vertex 5 0 35
      vertex 15 0 25
    endloop
  endfacet
  facet normal 0 -1 0
    outer loop
      vertex 0 0 10.6077
      vertex 5 0 35
      vertex 0 0 39
    endloop
  endfacet
  facet normal 0 -1 -0
    outer loop
      vertex 5 0 35
      vertex 0 0 10.6077
      vertex 15 0 25
    endloop
  endfacet
  facet normal 0 -1 -0
    outer loop
      vertex 15 0 15
      vertex 0 0 10.6077
      vertex 25 0 15
    endloop
  endfacet
  facet normal 0 -1 -0
    outer loop
      vertex 15 0 25
      vertex 0 0 10.6077
      vertex 15 0 15
    endloop
  endfacet
  facet normal 0 -1 0
    outer loop
      vertex 5 0 35
      vertex 25 0 25
      vertex 40 0 35
    endloop
  endfacet
  facet normal 0 -1 0
    outer loop
      vertex 40 0 10.6077
      vertex 25 0 25
      vertex 25 0 15
    endloop
  endfacet
  facet normal 0 -1 0
    outer loop
      vertex 25 0 25
      vertex 40 0 10.6077
      vertex 40 0 35
    endloop
  endfacet
  facet normal 0 -1 0
    outer loop
      vertex 40 0 10.6077
      vertex 25 0 15
      vertex 0 0 10.6077
    endloop
  endfacet
  facet normal 1 0 0
    outer loop
      vertex 40 5 35
      vertex 40 0 35
      vertex 40 5 15
    endloop
  endfacet
  facet normal 1 -0 0
    outer loop
      vertex 40 11.6667 5
      vertex 40 70 0
      vertex 40 70 5
    endloop
  endfacet
  facet normal 1 0 0
    outer loop
      vertex 40 11.6667 5
      vertex 40 6.12436 0
      vertex 40 70 0
    endloop
  endfacet
  facet normal 1 -0 0
    outer loop
      vertex 40 0 10.6077
      vertex 40 11.6667 5
      vertex 40 5 15
    endloop
  endfacet
  facet normal 1 0 0
    outer loop
      vertex 40 0 10.6077
      vertex 40 5 15
      vertex 40 0 35
    endloop
  endfacet
  facet normal 1 0 0
    outer loop
      vertex 40 11.6667 5
      vertex 40 0 10.6077
      vertex 40 6.12436 0
    endloop
  endfacet
  facet normal -0 0 1
    outer loop
      vertex 5 70 5
      vertex 40 11.6667 5
      vertex 40 70 5
    endloop
  endfacet
  facet normal 0 0 1
    outer loop
      vertex 40 11.6667 5
      vertex 5 70 5
      vertex 5 11.6667 5
    endloop
  endfacet
  facet normal -0 0 1
    outer loop
      vertex 5 5 35
      vertex 40 0 35
      vertex 40 5 35
    endloop
  endfacet
  facet normal 0 0 1
    outer loop
      vertex 40 0 35
      vertex 5 5 35
      vertex 5 0 35
    endloop
  endfacet
  facet normal 0 0 -1
    outer loop
      vertex 15 0 25
      vertex 25 5 25
      vertex 25 0 25
    endloop
  endfacet
  facet normal -0 0 -1
    outer loop
      vertex 25 5 25
      vertex 15 0 25
      vertex 15 5 25
    endloop
  endfacet
  facet normal 0 1 0
    outer loop
      vertex 40 5 35
      vertex 25 5 25
      vertex 5 5 35
    endloop
  endfacet
  facet normal 0 1 -0
    outer loop
      vertex 40 5 15
      vertex 25 5 25
      vertex 40 5 35
    endloop
  endfacet
  facet normal 0 1 0
    outer loop
      vertex 25 5 25
      vertex 40 5 15
      vertex 25 5 15
    endloop
  endfacet
  facet normal 0 1 -0
    outer loop
      vertex 15 5 25
      vertex 5 5 35
      vertex 25 5 25
    endloop
  endfacet
  facet normal 0 1 0
    outer loop
      vertex 5 5 15
      vertex 15 5 25
      vertex 15 5 15
    endloop
  endfacet
  facet normal 0 1 0
    outer loop
      vertex 15 5 25
      vertex 5 5 15
      vertex 5 5 35
    endloop
  endfacet
  facet normal 1 -0 0
    outer loop
      vertex 15 0 25
      vertex 15 5 15
      vertex 15 5 25
    endloop
  endfacet
  facet normal 1 0 0
    outer loop
      vertex 15 5 15
      vertex 15 0 25
      vertex 15 0 15
    endloop
  endfacet
  facet normal -0 0 1
    outer loop
      vertex 15 5 15
      vertex 25 0 15
      vertex 25 5 15
    endloop
  endfacet
  facet normal 0 0 1
    outer loop
      vertex 25 0 15
      vertex 15 5 15
      vertex 15 0 15
    endloop
  endfacet
  facet normal -1 0 0
    outer loop
      vertex 25 0 15
      vertex 25 5 25
      vertex 25 5 15
    endloop
  endfacet
  facet normal -1 -0 0
    outer loop
      vertex 25 5 25
      vertex 25 0 15
      vertex 25 0 25
    endloop
  endfacet
  facet normal 0 0.707107 -0.707107
    outer loop
      vertex 34 40.9389 33.9549
      vertex 5 42.0451 35.0611
      vertex 34 42.0451 35.0611
    endloop
  endfacet
  facet normal 0 0.707107 -0.707107
    outer loop
      vertex 5 42.0451 35.0611
      vertex 34 40.9389 33.9549
      vertex 5 40.9389 33.9549
    endloop
  endfacet
  facet normal 0 0.156422 -0.98769
    outer loop
      vertex 5 38 33
      vertex 34 39.5451 33.2447
      vertex 34 38 33
    endloop
  endfacet
  facet normal 0 0.156422 -0.98769
    outer loop
      vertex 34 39.5451 33.2447
      vertex 5 38 33
      vertex 5 39.5451 33.2447
    endloop
  endfacet
  facet normal 0 -0.707107 0.707107
    outer loop
      vertex 5 33.9549 40.9389
      vertex 34 35.0611 42.0451
      vertex 5 35.0611 42.0451
    endloop
  endfacet
  facet normal 0 -0.707107 0.707107
    outer loop
      vertex 34 35.0611 42.0451
      vertex 5 33.9549 40.9389
      vertex 34 33.9549 40.9389
    endloop
  endfacet
  facet normal -0 0.156422 0.98769
    outer loop
      vertex 5 39.5451 42.7553
      vertex 34 38 43
      vertex 34 39.5451 42.7553
    endloop
  endfacet
  facet normal 0 0.156422 0.98769
    outer loop
      vertex 34 38 43
      vertex 5 39.5451 42.7553
      vertex 5 38 43
    endloop
  endfacet
  facet normal 0 0.891 -0.454002
    outer loop
      vertex 34 42.0451 35.0611
      vertex 5 42.7553 36.4549
      vertex 34 42.7553 36.4549
    endloop
  endfacet
  facet normal 0 0.891 -0.454002
    outer loop
      vertex 5 42.7553 36.4549
      vertex 34 42.0451 35.0611
      vertex 5 42.0451 35.0611
    endloop
  endfacet
  facet normal 0 0.98769 -0.156422
    outer loop
      vertex 34 42.7553 36.4549
      vertex 5 43 38
      vertex 34 43 38
    endloop
  endfacet
  facet normal 0 0.98769 -0.156422
    outer loop
      vertex 5 43 38
      vertex 34 42.7553 36.4549
      vertex 5 42.7553 36.4549
    endloop
  endfacet
  facet normal 0 0.891 0.454002
    outer loop
      vertex 34 42.7553 39.5451
      vertex 5 42.0451 40.9389
      vertex 34 42.0451 40.9389
    endloop
  endfacet
  facet normal 0 0.891 0.454002
    outer loop
      vertex 5 42.0451 40.9389
      vertex 34 42.7553 39.5451
      vertex 5 42.7553 39.5451
    endloop
  endfacet
  facet normal 0 0.454002 -0.891
    outer loop
      vertex 5 39.5451 33.2447
      vertex 34 40.9389 33.9549
      vertex 34 39.5451 33.2447
    endloop
  endfacet
  facet normal 0 0.454002 -0.891
    outer loop
      vertex 34 40.9389 33.9549
      vertex 5 39.5451 33.2447
      vertex 5 40.9389 33.9549
    endloop
  endfacet
  facet normal 0 -0.891 0.454002
    outer loop
      vertex 5 33.2447 39.5451
      vertex 34 33.9549 40.9389
      vertex 5 33.9549 40.9389
    endloop
  endfacet
  facet normal 0 -0.891 0.454002
    outer loop
      vertex 34 33.9549 40.9389
      vertex 5 33.2447 39.5451
      vertex 34 33.2447 39.5451
    endloop
  endfacet
  facet normal 0 -0.98769 0.156422
    outer loop
      vertex 5 33 38
      vertex 34 33.2447 39.5451
      vertex 5 33.2447 39.5451
    endloop
  endfacet
  facet normal 0 -0.98769 0.156422
    outer loop
      vertex 34 33.2447 39.5451
      vertex 5 33 38
      vertex 34 33 38
    endloop
  endfacet
  facet normal 0 -0.707107 -0.707107
    outer loop
      vertex 5 35.0611 33.9549
      vertex 34 33.9549 35.0611
      vertex 5 33.9549 35.0611
    endloop
  endfacet
  facet normal 0 -0.707107 -0.707107
    outer loop
      vertex 34 33.9549 35.0611
      vertex 5 35.0611 33.9549
      vertex 34 35.0611 33.9549
    endloop
  endfacet
  facet normal 0 0.98769 0.156422
    outer loop
      vertex 34 43 38
      vertex 5 42.7553 39.5451
      vertex 34 42.7553 39.5451
    endloop
  endfacet
  facet normal 0 0.98769 0.156422
    outer loop
      vertex 5 42.7553 39.5451
      vertex 34 43 38
      vertex 5 43 38
    endloop
  endfacet
  facet normal 0 -0.891 -0.454002
    outer loop
      vertex 5 33.9549 35.0611
      vertex 34 33.2447 36.4549
      vertex 5 33.2447 36.4549
    endloop
  endfacet
  facet normal 0 -0.891 -0.454002
    outer loop
      vertex 34 33.2447 36.4549
      vertex 5 33.9549 35.0611
      vertex 34 33.9549 35.0611
    endloop
  endfacet
  facet normal 0 -0.98769 -0.156422
    outer loop
      vertex 5 33.2447 36.4549
      vertex 34 33 38
      vertex 5 33 38
    endloop
  endfacet
  facet normal 0 -0.98769 -0.156422
    outer loop
      vertex 34 33 38
      vertex 5 33.2447 36.4549
      vertex 34 33.2447 36.4549
    endloop
  endfacet
  facet normal 0 -0.454002 0.891
    outer loop
      vertex 5 36.4549 42.7553
      vertex 34 35.0611 42.0451
      vertex 34 36.4549 42.7553
    endloop
  endfacet
  facet normal 0 -0.454002 0.891
    outer loop
      vertex 34 35.0611 42.0451
      vertex 5 36.4549 42.7553
      vertex 5 35.0611 42.0451
    endloop
  endfacet
  facet normal 0 -0.156422 0.98769
    outer loop
      vertex 5 38 43
      vertex 34 36.4549 42.7553
      vertex 34 38 43
    endloop
  endfacet
  facet normal 0 -0.156422 0.98769
    outer loop
      vertex 34 36.4549 42.7553
      vertex 5 38 43
      vertex 5 36.4549 42.7553
    endloop
  endfacet
  facet normal -0 0.454002 0.891
    outer loop
      vertex 5 40.9389 42.0451
      vertex 34 39.5451 42.7553
      vertex 34 40.9389 42.0451
    endloop
  endfacet
  facet normal 0 0.454002 0.891
    outer loop
      vertex 34 39.5451 42.7553
      vertex 5 40.9389 42.0451
      vertex 5 39.5451 42.7553
    endloop
  endfacet
  facet normal 0 0.707107 0.707107
    outer loop
      vertex 34 42.0451 40.9389
      vertex 5 40.9389 42.0451
      vertex 34 40.9389 42.0451
    endloop
  endfacet
  facet normal 0 0.707107 0.707107
    outer loop
      vertex 5 40.9389 42.0451
      vertex 34 42.0451 40.9389
      vertex 5 42.0451 40.9389
    endloop
  endfacet
  facet normal 0 -0.454002 -0.891
    outer loop
      vertex 5 35.0611 33.9549
      vertex 34 36.4549 33.2447
      vertex 34 35.0611 33.9549
    endloop
  endfacet
  facet normal -0 -0.454002 -0.891
    outer loop
      vertex 34 36.4549 33.2447
      vertex 5 35.0611 33.9549
      vertex 5 36.4549 33.2447
    endloop
  endfacet
  facet normal 0 -0.156422 -0.98769
    outer loop
      vertex 5 36.4549 33.2447
      vertex 34 38 33
      vertex 34 36.4549 33.2447
    endloop
  endfacet
  facet normal -0 -0.156422 -0.98769
    outer loop
      vertex 34 38 33
      vertex 5 36.4549 33.2447
      vertex 5 38 33
    endloop
  endfacet
  facet normal -0.284098 0.149977 -0.946993
    outer loop
      vertex 39 38 31.5
      vertex 34 38 33
      vertex 34 39.5451 33.2447
    endloop
  endfacet
  facet normal -0.284099 -0.946993 -0.149974
    outer loop
      vertex 39 31.5 38
      vertex 34 33.2447 36.4549
      vertex 39 31.8181 35.9914
    endloop
  endfacet
  facet normal -0.284099 0.946993 -0.149974
    outer loop
      vertex 39 44.1819 35.9914
      vertex 34 42.7553 36.4549
      vertex 39 44.5 38
    endloop
  endfacet
  facet normal -0.284096 -0.435296 0.854288
    outer loop
      vertex 34 36.4549 42.7553
      vertex 34 35.0611 42.0451
      vertex 39 34.1794 43.2586
    endloop
  endfacet
  facet normal -0.284098 0.946993 0.149977
    outer loop
      vertex 34 43 38
      vertex 34 42.7553 39.5451
      vertex 39 44.5 38
    endloop
  endfacet
  facet normal -0.284097 0.435299 0.854285
    outer loop
      vertex 39 41.8206 43.2586
      vertex 34 39.5451 42.7553
      vertex 39 40.0086 44.1819
    endloop
  endfacet
  facet normal -0.284097 -0.854285 0.435299
    outer loop
      vertex 39 32.7414 41.8206
      vertex 34 33.2447 39.5451
      vertex 39 31.8181 40.0086
    endloop
  endfacet
  facet normal -0.284097 0.435299 -0.854285
    outer loop
      vertex 39 40.0086 31.8181
      vertex 34 39.5451 33.2447
      vertex 39 41.8206 32.7414
    endloop
  endfacet
  facet normal -0.284098 -0.946993 -0.149977
    outer loop
      vertex 39 31.5 38
      vertex 34 33 38
      vertex 34 33.2447 36.4549
    endloop
  endfacet
  facet normal -0.284098 -0.149977 0.946993
    outer loop
      vertex 34 38 43
      vertex 34 36.4549 42.7553
      vertex 39 38 44.5
    endloop
  endfacet
  facet normal -0.284099 -0.946993 0.149974
    outer loop
      vertex 39 31.8181 40.0086
      vertex 34 33.2447 39.5451
      vertex 39 31.5 38
    endloop
  endfacet
  facet normal -0.284096 0.854288 0.435296
    outer loop
      vertex 34 42.7553 39.5451
      vertex 34 42.0451 40.9389
      vertex 39 43.2586 41.8206
    endloop
  endfacet
  facet normal -0.284098 -0.149977 -0.946993
    outer loop
      vertex 39 38 31.5
      vertex 34 36.4549 33.2447
      vertex 34 38 33
    endloop
  endfacet
  facet normal -0.284096 -0.854288 -0.435296
    outer loop
      vertex 39 32.7414 34.1794
      vertex 34 33.2447 36.4549
      vertex 34 33.9549 35.0611
    endloop
  endfacet
  facet normal -0.284099 0.149974 -0.946993
    outer loop
      vertex 39 38 31.5
      vertex 34 39.5451 33.2447
      vertex 39 40.0086 31.8181
    endloop
  endfacet
  facet normal -0.284096 -0.854288 0.435296
    outer loop
      vertex 34 33.9549 40.9389
      vertex 34 33.2447 39.5451
      vertex 39 32.7414 41.8206
    endloop
  endfacet
  facet normal -0.284096 0.435296 0.854288
    outer loop
      vertex 34 40.9389 42.0451
      vertex 34 39.5451 42.7553
      vertex 39 41.8206 43.2586
    endloop
  endfacet
  facet normal -0.284097 -0.677971 -0.677971
    outer loop
      vertex 34 35.0611 33.9549
      vertex 39 32.7414 34.1794
      vertex 34 33.9549 35.0611
    endloop
  endfacet
  facet normal -0.284097 -0.677971 -0.677971
    outer loop
      vertex 39 32.7414 34.1794
      vertex 34 35.0611 33.9549
      vertex 39 34.1794 32.7414
    endloop
  endfacet
  facet normal -0.284097 -0.435299 -0.854285
    outer loop
      vertex 39 34.1794 32.7414
      vertex 34 36.4549 33.2447
      vertex 39 35.9914 31.8181
    endloop
  endfacet
  facet normal 1 0 0
    outer loop
      vertex 39 44.1819 40.0086
      vertex 39 44.1819 35.9914
      vertex 39 44.5 38
    endloop
  endfacet
  facet normal 1 0 0
    outer loop
      vertex 39 43.2586 41.8206
      vertex 39 44.1819 35.9914
      vertex 39 44.1819 40.0086
    endloop
  endfacet
  facet normal 1 0 0
    outer loop
      vertex 39 43.2586 41.8206
      vertex 39 43.2586 34.1794
      vertex 39 44.1819 35.9914
    endloop
  endfacet
  facet normal 1 0 0
    outer loop
      vertex 39 41.8206 43.2586
      vertex 39 43.2586 34.1794
      vertex 39 43.2586 41.8206
    endloop
  endfacet
  facet normal 1 0 0
    outer loop
      vertex 39 41.8206 43.2586
      vertex 39 41.8206 32.7414
      vertex 39 43.2586 34.1794
    endloop
  endfacet
  facet normal 1 0 0
    outer loop
      vertex 39 40.0086 44.1819
      vertex 39 41.8206 32.7414
      vertex 39 41.8206 43.2586
    endloop
  endfacet
  facet normal 1 0 0
    outer loop
      vertex 39 40.0086 44.1819
      vertex 39 40.0086 31.8181
      vertex 39 41.8206 32.7414
    endloop
  endfacet
  facet normal 1 0 0
    outer loop
      vertex 39 38 44.5
      vertex 39 40.0086 31.8181
      vertex 39 40.0086 44.1819
    endloop
  endfacet
  facet normal 1 0 0
    outer loop
      vertex 39 38 44.5
      vertex 39 38 31.5
      vertex 39 40.0086 31.8181
    endloop
  endfacet
  facet normal 1 -0 0
    outer loop
      vertex 39 35.9914 44.1819
      vertex 39 38 31.5
      vertex 39 38 44.5
    endloop
  endfacet
  facet normal 1 0 0
    outer loop
      vertex 39 35.9914 44.1819
      vertex 39 35.9914 31.8181
      vertex 39 38 31.5
    endloop
  endfacet
  facet normal 1 -0 0
    outer loop
      vertex 39 34.1794 43.2586
      vertex 39 35.9914 31.8181
      vertex 39 35.9914 44.1819
    endloop
  endfacet
  facet normal 1 0 0
    outer loop
      vertex 39 34.1794 43.2586
      vertex 39 34.1794 32.7414
      vertex 39 35.9914 31.8181
    endloop
  endfacet
  facet normal 1 -0 0
    outer loop
      vertex 39 32.7414 41.8206
      vertex 39 34.1794 32.7414
      vertex 39 34.1794 43.2586
    endloop
  endfacet
  facet normal 1 0 0
    outer loop
      vertex 39 32.7414 41.8206
      vertex 39 32.7414 34.1794
      vertex 39 34.1794 32.7414
    endloop
  endfacet
  facet normal 1 -0 0
    outer loop
      vertex 39 31.8181 40.0086
      vertex 39 32.7414 34.1794
      vertex 39 32.7414 41.8206
    endloop
  endfacet
  facet normal 1 0 0
    outer loop
      vertex 39 31.8181 40.0086
      vertex 39 31.8181 35.9914
      vertex 39 32.7414 34.1794
    endloop
  endfacet
  facet normal 1 0 -0
    outer loop
      vertex 39 31.8181 35.9914
      vertex 39 31.8181 40.0086
      vertex 39 31.5 38
    endloop
  endfacet
  facet normal -0.284098 -0.946993 0.149977
    outer loop
      vertex 34 33.2447 39.5451
      vertex 34 33 38
      vertex 39 31.5 38
    endloop
  endfacet
  facet normal -0.284097 -0.854285 -0.435299
    outer loop
      vertex 39 31.8181 35.9914
      vertex 34 33.2447 36.4549
      vertex 39 32.7414 34.1794
    endloop
  endfacet
  facet normal -0.284096 -0.435296 -0.854288
    outer loop
      vertex 39 34.1794 32.7414
      vertex 34 35.0611 33.9549
      vertex 34 36.4549 33.2447
    endloop
  endfacet
  facet normal -0.284096 0.854288 -0.435296
    outer loop
      vertex 39 43.2586 34.1794
      vertex 34 42.0451 35.0611
      vertex 34 42.7553 36.4549
    endloop
  endfacet
  facet normal -0.284097 0.677971 0.677971
    outer loop
      vertex 39 43.2586 41.8206
      vertex 34 40.9389 42.0451
      vertex 39 41.8206 43.2586
    endloop
  endfacet
  facet normal -0.284097 0.677971 0.677971
    outer loop
      vertex 34 40.9389 42.0451
      vertex 39 43.2586 41.8206
      vertex 34 42.0451 40.9389
    endloop
  endfacet
  facet normal -0.284097 -0.435299 0.854285
    outer loop
      vertex 39 35.9914 44.1819
      vertex 34 36.4549 42.7553
      vertex 39 34.1794 43.2586
    endloop
  endfacet
  facet normal -0.284099 -0.149974 0.946993
    outer loop
      vertex 39 38 44.5
      vertex 34 36.4549 42.7553
      vertex 39 35.9914 44.1819
    endloop
  endfacet
  facet normal -0.284097 0.854285 0.435299
    outer loop
      vertex 39 44.1819 40.0086
      vertex 34 42.7553 39.5451
      vertex 39 43.2586 41.8206
    endloop
  endfacet
  facet normal -0.284099 0.946993 0.149974
    outer loop
      vertex 39 44.5 38
      vertex 34 42.7553 39.5451
      vertex 39 44.1819 40.0086
    endloop
  endfacet
  facet normal -0.284099 -0.149974 -0.946993
    outer loop
      vertex 39 35.9914 31.8181
      vertex 34 36.4549 33.2447
      vertex 39 38 31.5
    endloop
  endfacet
  facet normal -0.284097 -0.677971 0.677971
    outer loop
      vertex 34 35.0611 42.0451
      vertex 39 32.7414 41.8206
      vertex 39 34.1794 43.2586
    endloop
  endfacet
  facet normal -0.284097 -0.677971 0.677971
    outer loop
      vertex 39 32.7414 41.8206
      vertex 34 35.0611 42.0451
      vertex 34 33.9549 40.9389
    endloop
  endfacet
  facet normal -0.284097 0.677971 -0.677971
    outer loop
      vertex 39 43.2586 34.1794
      vertex 34 40.9389 33.9549
      vertex 34 42.0451 35.0611
    endloop
  endfacet
  facet normal -0.284097 0.677971 -0.677971
    outer loop
      vertex 34 40.9389 33.9549
      vertex 39 43.2586 34.1794
      vertex 39 41.8206 32.7414
    endloop
  endfacet
  facet normal -0.284096 0.435296 -0.854288
    outer loop
      vertex 39 41.8206 32.7414
      vertex 34 39.5451 33.2447
      vertex 34 40.9389 33.9549
    endloop
  endfacet
  facet normal -0.284098 0.946993 -0.149977
    outer loop
      vertex 39 44.5 38
      vertex 34 42.7553 36.4549
      vertex 34 43 38
    endloop
  endfacet
  facet normal -0.284097 0.854285 -0.435299
    outer loop
      vertex 39 43.2586 34.1794
      vertex 34 42.7553 36.4549
      vertex 39 44.1819 35.9914
    endloop
  endfacet
  facet normal -0.284098 0.149977 0.946993
    outer loop
      vertex 34 39.5451 42.7553
      vertex 34 38 43
      vertex 39 38 44.5
    endloop
  endfacet
  facet normal -0.284099 0.149974 0.946993
    outer loop
      vertex 39 40.0086 44.1819
      vertex 34 39.5451 42.7553
      vertex 39 38 44.5
    endloop
  endfacet
  facet normal 0 0.832049 0.554702
    outer loop
      vertex 40 11.6667 5
      vertex 25 5 15
      vertex 40 5 15
    endloop
  endfacet
  facet normal -0 0.832049 0.554702
    outer loop
      vertex 5 11.6667 5
      vertex 25 5 15
      vertex 40 11.6667 5
    endloop
  endfacet
  facet normal 0 0.832049 0.554702
    outer loop
      vertex 25 5 15
      vertex 5 11.6667 5
      vertex 15 5 15
    endloop
  endfacet
  facet normal 0 0.832049 0.554702
    outer loop
      vertex 15 5 15
      vertex 5 11.6667 5
      vertex 5 5 15
    endloop
  endfacet
  facet normal 0 -0.866025 0.500001
    outer loop
      vertex 0 0 39
      vertex 5 17.8979 70
      vertex 0 17.8979 70
    endloop
  endfacet
  facet normal 0 -0.866025 0.500001
    outer loop
      vertex 5 17.8979 70
      vertex 0 0 39
      vertex 5 0 39
    endloop
  endfacet
  facet normal 0 -0.866025 -0.5
    outer loop
      vertex 0 6.12436 0
      vertex 40 0 10.6077
      vertex 0 0 10.6077
    endloop
  endfacet
  facet normal 0 -0.866025 -0.5
    outer loop
      vertex 40 0 10.6077
      vertex 0 6.12436 0
      vertex 40 6.12436 0
    endloop
  endfacet
endsolid OpenSCAD_Model
